<svg width="57" height="57" viewBox="0 0 57 57" fill="none" xmlns="http://www.w3.org/2000/svg">
<g clip-path="url(#clip0_10251_50285)">
<path d="M28.4998 21.8738C41.1823 21.8738 42.4648 14.1788 49.6611 14.1788C51.1573 14.1788 52.4398 14.4638 53.5086 14.82C48.6636 5.985 39.2586 0 28.4998 0C17.7411 0 8.33609 5.985 3.49109 14.82C4.55984 14.4638 5.84234 14.1788 7.33859 14.1788C14.5348 14.1788 15.8173 21.8738 28.4998 21.8738Z" fill="#22B781"/>
<path d="M28.5712 43.9613C32.9175 43.9613 36.48 40.3988 36.48 36.0525C36.48 33.4875 35.2687 31.2075 33.345 29.7825C31.9912 28.785 30.3525 28.1438 28.5712 28.1438C26.7187 28.1438 25.08 28.785 23.7262 29.8538C21.8737 31.2788 20.7337 33.5588 20.7337 36.0525C20.6625 40.47 24.225 43.9613 28.5712 43.9613Z" fill="#22B781"/>
<path d="M56.2875 22.1592C54.5062 17.2429 48.735 18.4542 46.74 20.3067C39.9712 26.3629 37.7625 26.5767 37.7625 26.5767H37.6912C40.185 28.9992 41.7525 32.3479 41.7525 36.0529C41.7525 43.3204 35.8387 49.2342 28.5712 49.2342C21.3037 49.2342 15.39 43.3204 15.39 36.0529C15.39 32.3479 16.8862 28.9992 19.38 26.6479L19.2375 26.5767C19.2375 26.5767 17.0287 26.3629 10.26 20.2354C8.265 18.4542 2.4225 17.1717 0.7125 22.0879C0.49875 23.0142 0.35625 24.0117 0.21375 25.0092C0.21375 25.7929 0.1425 26.3629 0.07125 26.7192C0 27.3604 0 27.9304 0 28.5004C0 44.2467 12.7537 57.0004 28.5 57.0004C44.2463 57.0004 57 44.2467 57 28.5004C57 27.9304 57 27.3604 56.9287 26.7904C56.8575 26.4342 56.7862 25.8642 56.7862 25.0804C56.6437 24.0829 56.5012 23.0854 56.2875 22.1592Z" fill="white"/>
</g>
<defs>
<clipPath id="clip0_10251_50285">
<rect width="57" height="57" fill="white"/>
</clipPath>
</defs>
</svg>
