<svg width="80" height="80" viewBox="0 0 80 80" fill="none" xmlns="http://www.w3.org/2000/svg">
<g clip-path="url(#clip0_10397_35793)">
<path d="M39.9999 30.7C57.7999 30.7 59.5999 19.9 69.6999 19.9C71.7999 19.9 73.5999 20.3 75.0999 20.8C68.2999 8.4 55.0999 0 39.9999 0C24.8999 0 11.6999 8.4 4.8999 20.8C6.3999 20.3 8.1999 19.9 10.2999 19.9C20.3999 19.9 22.1999 30.7 39.9999 30.7Z" fill="url(#paint0_linear_10397_35793)"/>
<path d="M40.0999 61.7C46.1999 61.7 51.1999 56.7 51.1999 50.6C51.1999 47 49.4999 43.8 46.7999 41.8C44.8999 40.4 42.5999 39.5 40.0999 39.5C37.4999 39.5 35.1999 40.4 33.2999 41.9C30.6999 43.9 29.0999 47.1 29.0999 50.6C28.9999 56.8 33.9999 61.7 40.0999 61.7Z" fill="url(#paint1_linear_10397_35793)"/>
<path d="M79 31.1004C76.5 24.2004 68.4 25.9004 65.6 28.5004C56.1 37.0004 53 37.3004 53 37.3004H52.9C56.4 40.7004 58.6 45.4004 58.6 50.6004C58.6 60.8004 50.3 69.1004 40.1 69.1004C29.9 69.1004 21.6 60.8004 21.6 50.6004C21.6 45.4004 23.7 40.7004 27.2 37.4004L27 37.3004C27 37.3004 23.9 37.0004 14.4 28.4004C11.6 25.9004 3.4 24.1004 1 31.0004C0.7 32.3004 0.5 33.7004 0.3 35.1004C0.3 36.2004 0.2 37.0004 0.1 37.5004C0 38.4004 0 39.2004 0 40.0004C0 62.1004 17.9 80.0004 40 80.0004C62.1 80.0004 80 62.1004 80 40.0004C80 39.2004 80 38.4004 79.9 37.6004C79.8 37.1004 79.7 36.3004 79.7 35.2004C79.5 33.8004 79.3 32.4004 79 31.1004Z" fill="#1D1E30"/>
</g>
<defs>
<linearGradient id="paint0_linear_10397_35793" x1="39.9999" y1="0" x2="39.9999" y2="30.7" gradientUnits="userSpaceOnUse">
<stop stop-color="#59E0AF"/>
<stop offset="1" stop-color="#22B781"/>
</linearGradient>
<linearGradient id="paint1_linear_10397_35793" x1="40.1491" y1="39.5" x2="40.1491" y2="61.7" gradientUnits="userSpaceOnUse">
<stop stop-color="#59E0AF"/>
<stop offset="1" stop-color="#22B781"/>
</linearGradient>
<clipPath id="clip0_10397_35793">
<rect width="80" height="80" fill="white"/>
</clipPath>
</defs>
</svg>
